<svg xmlns="http://www.w3.org/2000/svg" viewBox="0 0 128 80">
  <defs>
    <linearGradient id="body" x1="14" x2="116" y1="18" y2="64" gradientUnits="userSpaceOnUse">
      <stop stop-color="#ff6b6b"/>
      <stop offset=".5" stop-color="#d6002b"/>
      <stop offset="1" stop-color="#6d0018"/>
    </linearGradient>
    <filter id="glow" x="-25%" y="-45%" width="150%" height="190%">
      <feGaussianBlur stdDeviation="2.8" result="b"/>
      <feMerge><feMergeNode in="b"/><feMergeNode in="SourceGraphic"/></feMerge>
    </filter>
  </defs>
  <g filter="url(#glow)">
    <path d="M17 51 C22 31 38 22 60 22 H84 C98 23 109 35 113 49 L121 52 C126 54 126 63 119 66 H25 C14 66 6 61 10 55 C11 52 13 51 17 51Z" fill="url(#body)" stroke="#ff9c9c" stroke-width="3"/>
    <path d="M43 26 H77 C86 27 93 36 96 45 H36 C38 36 40 30 43 26Z" fill="#2b0610" stroke="#ff6b6b" stroke-width="2"/>
    <path d="M21 50 H116" stroke="#ffb0b0" stroke-width="4" stroke-linecap="round" opacity=".75"/>
    <path d="M6 55 H20" stroke="#ff2424" stroke-width="5" stroke-linecap="round"/>
  </g>
  <circle cx="34" cy="64" r="12" fill="#080808" stroke="#666" stroke-width="3"/>
  <circle cx="34" cy="64" r="5" fill="#ff4444"/>
  <circle cx="96" cy="64" r="12" fill="#080808" stroke="#666" stroke-width="3"/>
  <circle cx="96" cy="64" r="5" fill="#ff4444"/>
</svg>
